<svg width="20" height="17" viewBox="0 0 20 17" fill="none" xmlns="http://www.w3.org/2000/svg">
<path d="M1.03722 14.4372C0.903231 14.5841 0.814808 14.7667 0.782707 14.9629C0.750605 15.1591 0.776208 15.3603 0.856402 15.5422C0.936595 15.7241 1.06792 15.8788 1.23441 15.9875C1.40089 16.0961 1.59536 16.154 1.79416 16.1541H18.2047C18.4035 16.1542 18.598 16.0965 18.7646 15.9881C18.9312 15.8797 19.0627 15.7252 19.1431 15.5434C19.2235 15.3616 19.2493 15.1604 19.2175 14.9642C19.1857 14.768 19.0975 14.5852 18.9637 14.4382C17.5996 13.032 16.1534 11.5377 16.1534 6.92321C16.1534 5.29107 15.505 3.72579 14.3509 2.5717C13.1969 1.41761 11.6316 0.769245 9.99944 0.769245C8.36731 0.769245 6.80202 1.41761 5.64793 2.5717C4.49384 3.72579 3.84548 5.29107 3.84548 6.92321C3.84548 11.5377 2.39827 13.032 1.03722 14.4372Z" stroke="black" stroke-width="1.5" stroke-linecap="round" stroke-linejoin="round"/>
</svg>
