<svg width="20" height="19" viewBox="0 0 20 19" fill="none" xmlns="http://www.w3.org/2000/svg">
<path d="M15 16.6248C15 14.9451 14.2976 13.3342 13.0473 12.1465C11.7971 10.9588 10.1014 10.2915 8.33329 10.2915C6.56518 10.2915 4.86949 10.9588 3.61925 12.1465C2.36901 13.3342 1.66663 14.9451 1.66663 16.6248" stroke="black" stroke-width="2" stroke-linecap="round" stroke-linejoin="round"/>
<path d="M8.33329 10.2917C10.6345 10.2917 12.5 8.51946 12.5 6.33333C12.5 4.14721 10.6345 2.375 8.33329 2.375C6.03211 2.375 4.16663 4.14721 4.16663 6.33333C4.16663 8.51946 6.03211 10.2917 8.33329 10.2917Z" stroke="black" stroke-width="2" stroke-linecap="round" stroke-linejoin="round"/>
<path d="M18.3333 15.8334C18.3333 13.1654 16.6667 10.6875 15 9.50003C15.5478 9.10956 15.9859 8.59681 16.2755 8.00716C16.565 7.41751 16.6971 6.76915 16.66 6.11946C16.6229 5.46976 16.4178 4.83877 16.0629 4.28232C15.7079 3.72586 15.2141 3.26112 14.625 2.9292" stroke="black" stroke-width="2" stroke-linecap="round" stroke-linejoin="round"/>
</svg>
