<svg width="22" height="21" viewBox="0 0 22 21" fill="none" xmlns="http://www.w3.org/2000/svg">
<path d="M12.8334 15.5002V5.50016C12.8334 5.05814 12.6402 4.63421 12.2964 4.32165C11.9526 4.00909 11.4863 3.8335 11 3.8335H3.66671C3.18048 3.8335 2.71416 4.00909 2.37034 4.32165C2.02653 4.63421 1.83337 5.05814 1.83337 5.50016V14.6668C1.83337 14.8878 1.92995 15.0998 2.10186 15.2561C2.27377 15.4124 2.50693 15.5002 2.75004 15.5002H4.58337" stroke="black" stroke-width="2" stroke-linecap="round" stroke-linejoin="round"/>
<path d="M13.75 15.5H8.25" stroke="black" stroke-width="2" stroke-linecap="round" stroke-linejoin="round"/>
<path d="M17.4167 15.4998H19.25C19.4932 15.4998 19.7263 15.412 19.8982 15.2558C20.0701 15.0995 20.1667 14.8875 20.1667 14.6665V11.6248C20.1663 11.4357 20.0952 11.2523 19.965 11.1048L16.775 7.47984C16.6893 7.38224 16.5805 7.3034 16.4568 7.24917C16.333 7.19493 16.1974 7.16668 16.06 7.1665H12.8334" stroke="black" stroke-width="2" stroke-linecap="round" stroke-linejoin="round"/>
<path d="M15.5833 17.1668C16.5959 17.1668 17.4167 16.4206 17.4167 15.5002C17.4167 14.5797 16.5959 13.8335 15.5833 13.8335C14.5708 13.8335 13.75 14.5797 13.75 15.5002C13.75 16.4206 14.5708 17.1668 15.5833 17.1668Z" stroke="black" stroke-width="2" stroke-linecap="round" stroke-linejoin="round"/>
<path d="M6.41671 17.1668C7.42923 17.1668 8.25004 16.4206 8.25004 15.5002C8.25004 14.5797 7.42923 13.8335 6.41671 13.8335C5.40419 13.8335 4.58337 14.5797 4.58337 15.5002C4.58337 16.4206 5.40419 17.1668 6.41671 17.1668Z" stroke="black" stroke-width="2" stroke-linecap="round" stroke-linejoin="round"/>
</svg>
