<svg width="21" height="20" viewBox="0 0 21 20" fill="none" xmlns="http://www.w3.org/2000/svg">
<path d="M3.50005 11.6667C3.33447 11.6673 3.17213 11.623 3.03189 11.5392C2.89165 11.4554 2.77926 11.3354 2.70779 11.1931C2.63631 11.0509 2.60869 10.8922 2.62812 10.7356C2.64755 10.579 2.71324 10.4309 2.81755 10.3084L11.4801 1.80839C11.545 1.73696 11.6336 1.68868 11.7312 1.6715C11.8287 1.65431 11.9296 1.66923 12.0171 1.71381C12.1046 1.75838 12.1736 1.82997 12.2127 1.91681C12.2519 2.00365 12.2589 2.10059 12.2326 2.19172L10.5526 7.20839C10.503 7.33466 10.4864 7.47049 10.5041 7.60423C10.5218 7.73797 10.5733 7.86562 10.6541 7.97624C10.735 8.08686 10.8429 8.17715 10.9684 8.23935C11.094 8.30156 11.2335 8.33383 11.3751 8.33339H17.5001C17.6656 8.33285 17.828 8.37707 17.9682 8.46091C18.1085 8.54474 18.2209 8.66476 18.2923 8.80701C18.3638 8.94926 18.3914 9.1079 18.372 9.26451C18.3526 9.42111 18.2869 9.56926 18.1826 9.69172L9.52005 18.1917C9.45508 18.2632 9.36653 18.3114 9.26895 18.3286C9.17136 18.3458 9.07055 18.3309 8.98304 18.2863C8.89554 18.2417 8.82654 18.1701 8.78739 18.0833C8.74823 17.9965 8.74124 17.8995 8.76755 17.8084L10.4476 12.7917C10.4971 12.6655 10.5137 12.5296 10.496 12.3959C10.4783 12.2621 10.4269 12.1345 10.346 12.0239C10.2651 11.9132 10.1573 11.823 10.0317 11.7608C9.90612 11.6985 9.76659 11.6663 9.62505 11.6667H3.50005Z" stroke="black" stroke-width="1.5" stroke-linecap="round" stroke-linejoin="round"/>
</svg>
