<svg width="20" height="19" viewBox="0 0 20 19" fill="none" xmlns="http://www.w3.org/2000/svg">
<path d="M16.6667 2.375H3.33333C2.8731 2.375 2.5 2.72944 2.5 3.16667V7.125C2.5 7.56223 2.8731 7.91667 3.33333 7.91667H16.6667C17.1269 7.91667 17.5 7.56223 17.5 7.125V3.16667C17.5 2.72944 17.1269 2.375 16.6667 2.375Z" stroke="black" stroke-width="2" stroke-linecap="round" stroke-linejoin="round"/>
<path d="M9.16667 11.0835H3.33333C2.8731 11.0835 2.5 11.4379 2.5 11.8752V15.8335C2.5 16.2707 2.8731 16.6252 3.33333 16.6252H9.16667C9.6269 16.6252 10 16.2707 10 15.8335V11.8752C10 11.4379 9.6269 11.0835 9.16667 11.0835Z" stroke="black" stroke-width="2" stroke-linecap="round" stroke-linejoin="round"/>
<path d="M16.6667 11.0835H14.1667C13.7065 11.0835 13.3334 11.4379 13.3334 11.8752V15.8335C13.3334 16.2707 13.7065 16.6252 14.1667 16.6252H16.6667C17.1269 16.6252 17.5 16.2707 17.5 15.8335V11.8752C17.5 11.4379 17.1269 11.0835 16.6667 11.0835Z" stroke="black" stroke-width="2" stroke-linecap="round" stroke-linejoin="round"/>
</svg>
