<svg width="21" height="23" viewBox="0 0 21 23" fill="none" xmlns="http://www.w3.org/2000/svg">
<path d="M2.625 8.625H18.375V18.2083C18.375 18.7167 18.1906 19.2042 17.8624 19.5636C17.5342 19.9231 17.0891 20.125 16.625 20.125H4.375C3.91087 20.125 3.46575 19.9231 3.13756 19.5636C2.80937 19.2042 2.625 18.7167 2.625 18.2083V8.625Z" stroke="black" stroke-width="2" stroke-linecap="round" stroke-linejoin="round"/>
<path d="M2.625 8.62505L4.76875 3.92921C4.91484 3.61167 5.13871 3.34491 5.41531 3.15874C5.69191 2.97257 6.01035 2.87435 6.335 2.87505H14.665C14.9911 2.87256 15.3114 2.96994 15.5897 3.15621C15.868 3.34248 16.0932 3.61021 16.24 3.92921L18.375 8.62505" stroke="black" stroke-width="2" stroke-linecap="round" stroke-linejoin="round"/>
<path d="M10.5 2.875V8.625" stroke="black" stroke-width="2" stroke-linecap="round" stroke-linejoin="round"/>
</svg>
