<svg width="22" height="21" viewBox="0 0 22 21" fill="none" xmlns="http://www.w3.org/2000/svg">
<path d="M13.75 2.1665H8.25004C7.74378 2.1665 7.33337 2.5396 7.33337 2.99984V4.6665C7.33337 5.12674 7.74378 5.49984 8.25004 5.49984H13.75C14.2563 5.49984 14.6667 5.12674 14.6667 4.6665V2.99984C14.6667 2.5396 14.2563 2.1665 13.75 2.1665Z" stroke="black" stroke-width="2" stroke-linecap="round" stroke-linejoin="round"/>
<path d="M14.6666 3.8335H16.5C16.9862 3.8335 17.4525 4.00909 17.7963 4.32165C18.1401 4.63421 18.3333 5.05814 18.3333 5.50016V17.1668C18.3333 17.6089 18.1401 18.0328 17.7963 18.3453C17.4525 18.6579 16.9862 18.8335 16.5 18.8335H5.49996C5.01373 18.8335 4.54741 18.6579 4.2036 18.3453C3.85978 18.0328 3.66663 17.6089 3.66663 17.1668V5.50016C3.66663 5.05814 3.85978 4.63421 4.2036 4.32165C4.54741 4.00909 5.01373 3.8335 5.49996 3.8335H7.33329" stroke="black" stroke-width="2" stroke-linecap="round" stroke-linejoin="round"/>
<path d="M11 9.6665H14.6667" stroke="black" stroke-width="2" stroke-linecap="round" stroke-linejoin="round"/>
<path d="M11 13.8335H14.6667" stroke="black" stroke-width="2" stroke-linecap="round" stroke-linejoin="round"/>
<path d="M7.33337 9.6665H7.34171" stroke="black" stroke-width="2" stroke-linecap="round" stroke-linejoin="round"/>
<path d="M7.33337 13.8335H7.34171" stroke="black" stroke-width="2" stroke-linecap="round" stroke-linejoin="round"/>
</svg>
