<svg width="25" height="20" viewBox="0 0 25 20" fill="none" xmlns="http://www.w3.org/2000/svg">
<path d="M12.1497 8.93351L7.26305 13.0585C7.17204 13.138 7.06255 13.2022 6.94096 13.2473C6.81937 13.2924 6.68812 13.3175 6.55486 13.3211C6.42161 13.3248 6.28902 13.3069 6.16484 13.2685C6.04066 13.2302 5.92736 13.1721 5.83157 13.0977C5.73578 13.0233 5.65941 12.934 5.60691 12.8351C5.55441 12.7362 5.52684 12.6297 5.52581 12.5217C5.52477 12.4138 5.55029 12.3065 5.60088 12.2063C5.65147 12.106 5.72611 12.0148 5.82045 11.9379L11.405 7.22369C11.5901 7.06747 11.8436 6.97666 12.1098 6.97126C12.3759 6.96585 12.6329 7.04628 12.8242 7.19485L18.5957 11.6783C18.6931 11.7513 18.7713 11.8395 18.826 11.9376C18.8806 12.0357 18.9104 12.1418 18.9138 12.2497C18.9171 12.3576 18.8939 12.4652 18.8455 12.5661C18.797 12.6671 18.7244 12.7593 18.6317 12.8376C18.539 12.9158 18.4281 12.9785 18.3056 13.0218C18.1831 13.0652 18.0513 13.0885 17.9181 13.0903C17.7848 13.092 17.6526 13.0723 17.5293 13.0322C17.406 12.992 17.2939 12.9324 17.1998 12.8566L12.1497 8.93351Z" fill="black"/>
</svg>
