<svg width="18" height="19" viewBox="0 0 18 19" fill="none" xmlns="http://www.w3.org/2000/svg">
<path d="M1.69818 11.2158C1.52546 11.2163 1.35612 11.1702 1.20983 11.0828C1.06354 10.9953 0.946303 10.8701 0.871748 10.7217C0.797193 10.5733 0.768376 10.4079 0.788644 10.2445C0.808913 10.0811 0.877435 9.92661 0.98625 9.79887L10.0222 0.932376C10.09 0.857864 10.1824 0.807512 10.2842 0.789585C10.386 0.771657 10.4911 0.78722 10.5824 0.833718C10.6737 0.880216 10.7457 0.954887 10.7865 1.04547C10.8274 1.13606 10.8346 1.23718 10.8072 1.33224L9.05476 6.56521C9.00308 6.69692 8.98573 6.83861 9.00418 6.97811C9.02264 7.11762 9.07635 7.25078 9.16072 7.36617C9.24508 7.48156 9.35758 7.57574 9.48855 7.64062C9.61953 7.70551 9.76508 7.73917 9.91272 7.73871H16.3018C16.4745 7.73815 16.6439 7.78428 16.7902 7.87173C16.9364 7.95918 17.0537 8.08437 17.1282 8.23275C17.2028 8.38113 17.2316 8.54662 17.2113 8.70998C17.1911 8.87334 17.1226 9.02787 17.0137 9.15561L7.97774 18.0221C7.90996 18.0966 7.81759 18.147 7.7158 18.1649C7.61401 18.1828 7.50885 18.1673 7.41757 18.1208C7.32629 18.0743 7.25432 17.9996 7.21348 17.909C7.17264 17.8184 7.16534 17.7173 7.19279 17.6222L8.94523 12.3893C8.9969 12.2576 9.01426 12.1159 8.9958 11.9764C8.97735 11.8369 8.92363 11.7037 8.83927 11.5883C8.75491 11.4729 8.64241 11.3787 8.51143 11.3139C8.38045 11.249 8.2349 11.2153 8.08727 11.2158H1.69818Z" stroke="black" stroke-width="1.5" stroke-linecap="round" stroke-linejoin="round"/>
</svg>
