<svg width="16" height="15" viewBox="0 0 16 15" fill="none" xmlns="http://www.w3.org/2000/svg">
<path d="M6.93881 11.5355C7.62218 11.5355 8.29886 11.4076 8.93021 11.1592C9.56156 10.9107 10.1352 10.5466 10.6184 10.0875C11.1017 9.62846 11.485 9.08349 11.7465 8.4837C12.008 7.88392 12.1426 7.24107 12.1426 6.59187C12.1426 5.94267 12.008 5.29982 11.7465 4.70004C11.485 4.10026 11.1017 3.55528 10.6184 3.09622C10.1352 2.63717 9.56156 2.27303 8.93021 2.02459C8.29886 1.77615 7.62218 1.64828 6.93881 1.64828C5.55868 1.64828 4.23508 2.16912 3.25918 3.09622C2.28328 4.02333 1.73503 5.28075 1.73503 6.59187C1.73503 7.90299 2.28328 9.16041 3.25918 10.0875C4.23508 11.0146 5.55868 11.5355 6.93881 11.5355ZM12.4201 10.6341L15.525 13.5838C15.6078 13.6598 15.6738 13.7508 15.7192 13.8513C15.7646 13.9519 15.7884 14.06 15.7893 14.1694C15.7903 14.2788 15.7682 14.3873 15.7246 14.4885C15.6809 14.5898 15.6164 14.6817 15.5349 14.759C15.4534 14.8363 15.3565 14.8974 15.2499 14.9388C15.1433 14.9801 15.0291 15.0009 14.9139 14.9999C14.7988 14.9989 14.685 14.9761 14.5792 14.9328C14.4734 14.8896 14.3778 14.8267 14.2978 14.748L11.1929 11.7983C9.79869 12.8264 8.04443 13.3112 6.28726 13.1538C4.53008 12.9965 2.90207 12.2089 1.73464 10.9513C0.567212 9.69382 -0.0518748 8.0609 0.00340762 6.385C0.05869 4.7091 0.784186 3.11621 2.03221 1.9306C3.28023 0.744977 4.95695 0.0557556 6.72105 0.00323724C8.48515 -0.0492811 10.204 0.538851 11.5277 1.64791C12.8514 2.75697 13.6805 4.30358 13.8461 5.9729C14.0118 7.64221 13.5015 9.30875 12.4193 10.6333L12.4201 10.6341Z" fill="black"/>
</svg>
